<svg id="visual" viewBox="0 0 2000 100" width="2000" height="100" xmlns="http://www.w3.org/2000/svg" xmlns:xlink="http://www.w3.org/1999/xlink" version="1.1"><rect x="0" y="0" width="2000" height="100" fill="#ffffff"></rect><path d="M0 48L23.8 51.8C47.7 55.7 95.3 63.3 143 68.3C190.7 73.3 238.3 75.7 286 74.2C333.7 72.7 381.3 67.3 428.8 66C476.3 64.7 523.7 67.3 571.2 63.5C618.7 59.7 666.3 49.3 714 42.5C761.7 35.7 809.3 32.3 857 37.5C904.7 42.7 952.3 56.3 1000 61.5C1047.7 66.7 1095.3 63.3 1143 61.3C1190.7 59.3 1238.3 58.7 1286 59.3C1333.7 60 1381.3 62 1428.8 57C1476.3 52 1523.7 40 1571.2 37C1618.7 34 1666.3 40 1714 41.2C1761.7 42.3 1809.3 38.7 1857 36C1904.7 33.3 1952.3 31.7 1976.2 30.8L2000 30L2000 101L1976.2 101C1952.3 101 1904.7 101 1857 101C1809.3 101 1761.7 101 1714 101C1666.3 101 1618.7 101 1571.2 101C1523.7 101 1476.3 101 1428.8 101C1381.3 101 1333.7 101 1286 101C1238.3 101 1190.7 101 1143 101C1095.3 101 1047.7 101 1000 101C952.3 101 904.7 101 857 101C809.3 101 761.7 101 714 101C666.3 101 618.7 101 571.2 101C523.7 101 476.3 101 428.8 101C381.3 101 333.7 101 286 101C238.3 101 190.7 101 143 101C95.3 101 47.7 101 23.8 101L0 101Z" fill="#12c5c5" stroke-linecap="round" stroke-linejoin="miter"></path></svg>